<svg xmlns="http://www.w3.org/2000/svg" viewBox="0 0 1040 770" font-family="Inter, 'Helvetica Neue', Arial, sans-serif" role="img" aria-labelledby="t d">
  <title id="t">DINOH — AI research infrastructure / KI-Forschungsinfrastruktur</title>
  <desc id="d">Two-step path Admission then Analysis, with Benchmark setting the bar offline and Provenance recording how each interpretation was made. Traffic light and gates are shown as separate axes. Per-element maturity labels included. Attestation gate runs first, before G1 to G3. There is no G4.</desc>

  <rect x="0" y="0" width="1040" height="770" fill="#ffffff"/>
  <rect x="8" y="8" width="1024" height="754" rx="14" fill="#ffffff" stroke="#e5e7eb" stroke-width="1.5"/>

  <!-- Header -->
  <text x="28" y="44" font-size="22" font-weight="700" fill="#111827">DINOH — AI research infrastructure · KI-Forschungsinfrastruktur</text>
  <text x="28" y="66" font-size="12" fill="#4b5563">Digital, AI-assisted Infrastructure for Oral History · C²DH, University of Luxembourg · local-only LLM workflow for QCA (Mayring)</text>

  <!-- Maturity legend -->
  <text x="28" y="98" font-size="11" font-weight="700" fill="#374151">Maturity / Reifegrad:</text>
  <rect x="176" y="88" width="12" height="12" rx="3" fill="#2563eb"/><text x="193" y="98" font-size="11" fill="#374151">implemented</text>
  <rect x="288" y="88" width="12" height="12" rx="3" fill="#0891b2"/><text x="305" y="98" font-size="11" fill="#374151">validated</text>
  <rect x="386" y="88" width="12" height="12" rx="3" fill="#b45309"/><text x="403" y="98" font-size="11" fill="#374151">specified</text>
  <rect x="481" y="88" width="12" height="12" rx="3" fill="#9ca3af"/><text x="498" y="98" font-size="11" fill="#374151">planned</text>
  <text x="572" y="98" font-size="10" fill="#9ca3af">operator's current read — confirm before external use</text>

  <!-- BENCHMARK (above the flow) -->
  <rect x="330" y="120" width="380" height="78" rx="10" fill="#ecfeff" stroke="#0891b2" stroke-width="2"/>
  <text x="510" y="146" font-size="16" font-weight="700" text-anchor="middle" fill="#111827">Benchmark · Prüfstand</text>
  <text x="510" y="165" font-size="10" font-style="italic" text-anchor="middle" fill="#4b5563">Evaluation &amp; Benchmarking / Evaluation und Prüfstand</text>
  <text x="510" y="183" font-size="10" text-anchor="middle" fill="#6b7280">measures de-identification recall (synthetic, Stage 1) — not QCA quality</text>
  <rect x="632" y="127" width="66" height="16" rx="8" fill="#0891b2"/><text x="665" y="139" font-size="9.5" font-weight="700" text-anchor="middle" fill="#ffffff">validated</text>
  <!-- arrow benchmark -> flow -->
  <line x1="520" y1="194" x2="520" y2="232" stroke="#0891b2" stroke-width="1.5" stroke-dasharray="5 4"/>
  <polygon points="520,238 515,228 525,228" fill="#0891b2"/>
  <text x="532" y="218" font-size="9.5" fill="#0891b2">sets the bar (offline) · setzt die Latte</text>

  <!-- input -->
  <text x="28" y="292" font-size="12" font-weight="600" fill="#374151">Raw interviews</text>
  <text x="28" y="308" font-size="11" fill="#6b7280">Interviews (roh)</text>
  <line x1="150" y1="298" x2="172" y2="298" stroke="#374151" stroke-width="2"/><polygon points="178,298 168,293 168,303" fill="#374151"/>

  <!-- ADMISSION -->
  <rect x="182" y="244" width="284" height="108" rx="10" fill="#eff6ff" stroke="#2563eb" stroke-width="2"/>
  <text x="324" y="276" font-size="18" font-weight="700" text-anchor="middle" fill="#111827">Admission · Zugang</text>
  <text x="324" y="293" font-size="9.5" font-style="italic" text-anchor="middle" fill="#4b5563">Data Admission &amp; Governance</text>
  <text x="324" y="307" font-size="9.5" font-style="italic" text-anchor="middle" fill="#4b5563">Datenzugang und Governance</text>
  <text x="324" y="334" font-size="10" text-anchor="middle" fill="#6b7280">traffic-light classification + default-deny gates</text>
  <rect x="388" y="250" width="72" height="16" rx="8" fill="#2563eb"/><text x="424" y="262" font-size="9.5" font-weight="700" text-anchor="middle" fill="#ffffff">implemented</text>

  <line x1="466" y1="298" x2="492" y2="298" stroke="#374151" stroke-width="2"/><polygon points="498,298 488,293 488,303" fill="#374151"/>

  <!-- ANALYSIS -->
  <rect x="504" y="244" width="284" height="108" rx="10" fill="#eff6ff" stroke="#2563eb" stroke-width="2"/>
  <text x="646" y="276" font-size="18" font-weight="700" text-anchor="middle" fill="#111827">Analysis · Analyse</text>
  <text x="646" y="296" font-size="10.5" font-style="italic" text-anchor="middle" fill="#4b5563">Analysis Workflow / Analyseworkflow</text>
  <text x="646" y="332" font-size="10" text-anchor="middle" fill="#6b7280">ingestion → segment → code → evaluate → export + manifest</text>
  <rect x="710" y="250" width="72" height="16" rx="8" fill="#2563eb"/><text x="746" y="262" font-size="9.5" font-weight="700" text-anchor="middle" fill="#ffffff">implemented</text>

  <line x1="788" y1="298" x2="814" y2="298" stroke="#374151" stroke-width="2"/><polygon points="820,298 810,293 810,303" fill="#374151"/>
  <text x="828" y="292" font-size="12" font-weight="600" fill="#374151">Findings</text>
  <text x="828" y="308" font-size="11" fill="#6b7280">kontrollierte Outputs</text>

  <!-- Two axes under Admission -->
  <rect x="182" y="366" width="284" height="74" rx="8" fill="#f9fafb" stroke="#d1d5db" stroke-width="1"/>
  <!-- traffic light -->
  <text x="196" y="385" font-size="10.5" font-weight="700" fill="#374151">Traffic light · Ampel</text>
  <circle cx="205" cy="408" r="9" fill="#16a34a"/><text x="205" y="431" font-size="9" text-anchor="middle" fill="#4b5563">grün</text>
  <circle cx="240" cy="408" r="9" fill="#eab308"/><text x="240" y="431" font-size="9" text-anchor="middle" fill="#4b5563">gelb</text>
  <circle cx="275" cy="408" r="9" fill="#dc2626"/><text x="275" y="431" font-size="9" text-anchor="middle" fill="#4b5563">rot</text>
  <line x1="312" y1="374" x2="312" y2="432" stroke="#e5e7eb" stroke-width="1"/>
  <!-- gates -->
  <text x="326" y="385" font-size="10.5" font-weight="700" fill="#374151">Gates (default-deny)</text>
  <text x="326" y="406" font-size="11" fill="#111827">Attestation → G1 → G2 → G3</text>
  <text x="326" y="424" font-size="9" fill="#b45309">attestation runs first · läuft zuerst · (no “G4”)</text>

  <!-- PROVENANCE band -->
  <rect x="60" y="470" width="920" height="208" rx="12" fill="#f9fafb" stroke="#9ca3af" stroke-width="2" stroke-dasharray="7 5"/>
  <text x="80" y="500" font-size="17" font-weight="700" fill="#111827">Provenance · Provenienz</text>
  <text x="80" y="519" font-size="10.5" font-style="italic" fill="#4b5563">Interpretive Provenance &amp; Accountability / Interpretative Provenienz und Rechenschaft</text>
  <rect x="80" y="528" width="92" height="16" rx="8" fill="#6b7280"/><text x="126" y="540" font-size="9.5" font-weight="700" text-anchor="middle" fill="#ffffff">emerging</text>
  <text x="190" y="540" font-size="10" fill="#6b7280">records how each interpretation was made · hält fest, wie codiert wurde</text>

  <!-- dashed link provenance -> flow -->
  <line x1="520" y1="470" x2="520" y2="360" stroke="#9ca3af" stroke-width="1.5" stroke-dasharray="5 4"/>
  <polygon points="520,354 515,364 525,364" fill="#9ca3af"/>

  <!-- BIND -->
  <rect x="84" y="556" width="270" height="104" rx="10" fill="#ffffff" stroke="#0891b2" stroke-width="2"/>
  <text x="219" y="586" font-size="16" font-weight="700" text-anchor="middle" fill="#111827">BIND</text>
  <text x="219" y="606" font-size="10" text-anchor="middle" fill="#4b5563">binds coding ↔ evidence + codebook</text>
  <text x="219" y="621" font-size="10" text-anchor="middle" fill="#4b5563">scope &amp; minor-sensitivity gates</text>
  <rect x="171" y="630" width="96" height="16" rx="8" fill="#0891b2"/><text x="219" y="642" font-size="9.5" font-weight="700" text-anchor="middle" fill="#ffffff">validated</text>

  <!-- ACCOUNT -->
  <rect x="385" y="556" width="270" height="104" rx="10" fill="#ffffff" stroke="#2563eb" stroke-width="2"/>
  <text x="520" y="586" font-size="16" font-weight="700" text-anchor="middle" fill="#111827">ACCOUNT</text>
  <text x="520" y="606" font-size="10" text-anchor="middle" fill="#4b5563">Art. 9 inference · art9-inference-upgrade</text>
  <text x="520" y="621" font-size="10" text-anchor="middle" fill="#4b5563">release gate · traffic-light re-eval</text>
  <rect x="450" y="630" width="140" height="16" rx="8" fill="#2563eb"/><text x="520" y="642" font-size="9.5" font-weight="700" text-anchor="middle" fill="#ffffff">implemented · partial</text>

  <!-- ADJUDICATE -->
  <rect x="686" y="556" width="270" height="104" rx="10" fill="#ffffff" stroke="#9ca3af" stroke-width="2" stroke-dasharray="6 4"/>
  <text x="821" y="586" font-size="16" font-weight="700" text-anchor="middle" fill="#111827">ADJUDICATE</text>
  <text x="821" y="606" font-size="10" text-anchor="middle" fill="#4b5563">reliability / inter-coder agreement</text>
  <text x="821" y="621" font-size="10" text-anchor="middle" fill="#4b5563">Reliabilität / Übereinstimmung</text>
  <rect x="773" y="630" width="96" height="16" rx="8" fill="#e5e7eb"/><text x="821" y="642" font-size="9.5" font-weight="700" text-anchor="middle" fill="#374151">planned</text>

  <!-- Footer rule -->
  <text x="28" y="712" font-size="11" font-weight="700" fill="#374151">enforces · verifies · decides —</text>
  <text x="232" y="712" font-size="11" fill="#4b5563">the system enforces technical &amp; accountability duties and verifies evidence; lawfulness &amp; anonymity remain human decisions.</text>
  <text x="28" y="731" font-size="10" fill="#9ca3af">Das System erzwingt Pflichten und verifiziert Nachweise; über Rechtmäßigkeit und Anonymität entscheidet der Mensch. · Old letters: A→Benchmark · B→Analysis · C→Admission · D→Provenance.</text>
</svg>
